<?xml version="1.0" encoding="utf-8"?>
<!-- Generator: Adobe Illustrator 26.0.1, SVG Export Plug-In . SVG Version: 6.00 Build 0)  -->
<svg version="1.1" id="Layer_1" xmlns="http://www.w3.org/2000/svg" xmlns:xlink="http://www.w3.org/1999/xlink" x="0px" y="0px"
	 viewBox="0 0 683 314" style="enable-background:new 0 0 683 314;" xml:space="preserve">
<style type="text/css">
	.st0 {
		enable-background:new;
	}
</style>
<g>
	<g class="st0">
		<path fill="#313131" d="M361.5,133.2H383c8.7,0,14.6,2.8,14.6,11.3c0,4.5-2.2,7.5-6.2,9.5c5.6,1.6,8.4,5.9,8.4,11.6c0,9.3-7.9,13.2-16.1,13.2
			h-22.1V133.2z M381.7,151.7c3.6,0,6.1-1.6,6.1-5.4c0-4.3-3.3-5.2-6.9-5.2h-9.4v10.7H381.7z M382.2,171.1c3.9,0,7.4-1.3,7.4-6
			c0-4.7-2.9-6.5-7.2-6.5h-10.9v12.5H382.2z"/>
	</g>
	<g class="st0">
		<path fill="#313131" d="M406.5,133.2h34.1v8.4h-24.1v9.8h22.1v7.8h-22.1v11.2h24.6v8.4h-34.7V133.2z"/>
	</g>
	<g class="st0">
		<path fill="#313131" d="M465.5,133.2h10.3l17.1,45.7h-10.4l-3.5-10.2h-17.1l-3.6,10.2h-10.2L465.5,133.2z M476.4,161.2l-5.8-16.8h-0.1l-5.9,16.8
			H476.4z"/>
	</g>
	<g class="st0">
		<path fill="#313131" d="M506.2,163.7c0,6.1,4.7,8.4,10.1,8.4c3.5,0,8.9-1,8.9-5.7c0-5-6.9-5.7-13.6-7.5c-6.8-1.7-13.6-4.5-13.6-13
			c0-9.4,8.8-13.8,17.1-13.8c9.5,0,18.3,4.2,18.3,14.7h-9.7c-0.3-5.4-4.2-6.9-9-6.9c-3.2,0-6.9,1.3-6.9,5.2c0,3.5,2.2,4,13.6,6.9
			c3.4,0.8,13.6,3,13.6,13.3c0,8.4-6.5,14.6-19,14.6c-10.1,0-19.6-5-19.4-16.2H506.2z"/>
	</g>
	<g class="st0">
		<path fill="#313131" d="M552.3,141.7h-13.7v-8.4H576v8.4h-13.7v37.2h-10V141.7z"/>
	</g>
	<g class="st0">
		<path fill="#313131" d="M591.7,127.8h-2.7v7.5h-2.3v-7.5h-2.7V126h7.6V127.8z M603.7,135.4h-2.2v-6.6h0l-2.4,6.6h-1.6l-2.4-6.6h0v6.6h-2.2V126
			h3.1l2.3,6.1l2.3-6.1h3.1V135.4z"/>
	</g>
	<g class="st0">
		<path fill="#313131" d="M121.9,133.2h10v18.9l17.8-18.9h12.5l-17.8,18l19.6,27.6h-12.6l-13.7-20.5l-5.8,5.8v14.7h-10V133.2z"/>
	</g>
	<g class="st0">
		<path fill="#313131" d="M170.7,133.2h10v45.7h-10V133.2z"/>
	</g>
	<g class="st0">
		<path fill="#313131" d="M189.5,133.2h19.7c11.8,0,20.7,7.5,20.7,22.6c0,13.2-6.8,23.1-20.7,23.1h-19.7V133.2z M208.5,170.4
			c5.8,0,11.4-3.6,11.4-13.7c0-9.2-3.3-15.1-13.2-15.1h-7.2v28.8H208.5z"/>
	</g>
	<g class="st0">
		<path fill="#313131" d="M85.8,156c0.3-4.5,4.4-5.9,8.3-5.9c3.5,0,7.8,0.8,7.8,5v9.2c0,1.6,0.2,3.2,0.6,3.9h-4.9c-0.2-0.5-0.3-1.1-0.3-1.7
			c-1.5,1.6-3.8,2.2-6,2.2c-3.4,0-6-1.7-6-5.3c0-4.6,3.9-5.2,7.3-5.6c3-0.3,4.5-0.6,4.5-2.2c0-2.1-1.4-2.4-3.2-2.4
			c-1.9,0-3,0.8-3.2,2.7H85.8z M97.1,159.6c-0.5,0.5-1.6,0.7-2.9,0.9c-2,0.3-4,0.6-4,2.8c0,1.8,1.4,2.3,3,2.3c3.8,0,3.9-3,3.9-4.1
			V159.6z"/>
	</g>
	<g class="st0">
		<path fill="#313131" d="M257.7,156.8c-0.3-2-1.5-3.1-3.6-3.1c-3.1,0-4.1,3.2-4.1,5.8c0,2.6,1,5.6,4,5.6c2.3,0,3.6-1.4,3.9-3.6h4.7
			c-0.7,4.7-3.8,7.3-8.5,7.3c-5.3,0-8.9-3.8-8.9-9.1c0-5.5,3.3-9.6,9-9.6c4.2,0,8.1,2.2,8.3,6.7H257.7z"/>
		<path fill="#313131" d="M265.1,156c0.3-4.5,4.4-5.9,8.3-5.9c3.5,0,7.8,0.8,7.8,5v9.2c0,1.6,0.2,3.2,0.6,3.9h-4.9c-0.2-0.5-0.3-1.1-0.3-1.7
			c-1.5,1.6-3.8,2.2-6,2.2c-3.4,0-6-1.7-6-5.3c0-4.6,3.9-5.2,7.3-5.6c3-0.3,4.5-0.6,4.5-2.2c0-2.1-1.4-2.4-3.2-2.4
			c-1.9,0-3,0.8-3.2,2.7H265.1z M276.3,159.6c-0.5,0.5-1.6,0.7-2.9,0.9c-2,0.3-4,0.6-4,2.8c0,1.8,1.4,2.3,3,2.3c3.8,0,3.9-3,3.9-4.1
			V159.6z"/>
		<path fill="#313131" d="M285.1,143.8h4.9v24.5h-4.9V143.8z"/>
		<path fill="#313131" d="M293.9,143.8h4.9v24.5h-4.9V143.8z"/>
		<path fill="#313131" d="M306.6,160.6c0.1,3.1,1.6,4.5,4.4,4.5c2,0,3.5-1.2,3.8-2.3h4.3c-1.4,4.2-4.3,6-8.3,6c-5.6,0-9-3.8-9-9.3
			c0-5.3,3.7-9.4,9-9.4c6,0,9,5.1,8.6,10.5H306.6z M314.6,157.5c-0.4-2.5-1.5-3.8-3.9-3.8c-3.2,0-3.9,2.4-4,3.8H314.6z"/>
		<path fill="#313131" d="M335,166L335,166c-1.2,1.9-3.2,2.7-5.4,2.7c-5.3,0-8-4.6-8-9.5c0-4.8,2.6-9.2,7.8-9.2c2.1,0,4.1,0.9,5.2,2.6h0.1v-8.9h4.9
			v24.5H335V166z M330.7,153.8c-3.2,0-4.3,2.8-4.3,5.7c0,2.8,1.3,5.7,4.3,5.7c3.2,0,4.2-2.8,4.2-5.7
			C334.9,156.5,333.9,153.8,330.7,153.8z"/>
	</g>
</g>
</svg>
