<svg width="100%" viewBox="0 0 94 22" fill="none" xmlns="http://www.w3.org/2000/svg">
<g clip-path="url(#clip0_1100_10745)">
<path d="M13.5834 10.1955C14.3279 9.86775 14.9525 9.31742 15.3714 8.62018C15.7954 7.84464 16.0023 6.96907 15.9703 6.08577C15.9703 4.44535 15.435 3.19261 14.3646 2.32756C13.2941 1.4625 11.7376 1.02853 9.695 1.02563H0.282104V20.9884H9.39556C11.7101 20.9884 13.5038 20.4604 14.7768 19.4044C16.0498 18.3484 16.682 16.8483 16.6733 14.9041C16.7074 13.8779 16.4404 12.8641 15.9052 11.9878C15.3372 11.1628 14.5254 10.536 13.5834 10.1955V10.1955ZM4.22258 4.50177H8.88347C9.93803 4.50177 10.6975 4.66668 11.1531 4.9965C11.3893 5.18513 11.5752 5.42928 11.694 5.70719C11.8129 5.98509 11.8612 6.2881 11.8345 6.58918C11.8605 6.8999 11.81 7.21226 11.6875 7.49897C11.5649 7.78569 11.374 8.03803 11.1315 8.23394C10.6628 8.58402 9.92212 8.75905 8.90951 8.75905H4.22258V4.50177ZM11.6001 16.7659C11.075 17.1998 10.2418 17.3865 9.09612 17.3865H4.22258V12.1788H9.05706C10.2418 12.1788 11.0924 12.3871 11.6045 12.795C12.1166 13.2029 12.377 13.8799 12.377 14.8087C12.4071 15.1735 12.3517 15.5403 12.2154 15.88C12.079 16.2198 11.8654 16.5231 11.5915 16.7659H11.6001Z" fill="#eeeeee"></path>
<path d="M23.8813 12.17H33.433V8.75892H23.8813V4.50163H34.327V1.03418H19.8323V20.9926H34.8174V17.3082H23.8813V12.17Z" fill="#eeeeee"></path>
<path d="M45.2066 1.03418L38.1068 20.997H42.4466L43.7485 16.8916H51.4906L52.8446 20.997H57.1322L49.9369 1.03418H45.2066ZM44.8291 13.5109L47.5848 5.03108L50.3709 13.5109H44.8291Z" fill="#eeeeee"></path>
<path d="M73.19 10.5339C72.683 10.254 72.1513 10.0216 71.6016 9.8395C70.9897 9.63553 69.9569 9.34477 68.503 8.97155L67.0666 8.62871C64.7984 8.12241 63.657 7.33402 63.6425 6.26355C63.6257 5.91543 63.6963 5.56864 63.8479 5.25481C63.9995 4.94098 64.2273 4.67011 64.5105 4.4669C65.2542 4.00464 66.1231 3.78476 66.9972 3.83764C68.0076 3.77375 69.0114 4.04032 69.857 4.59709C70.1939 4.8604 70.4682 5.19504 70.6603 5.57697C70.8523 5.9589 70.9574 6.37864 70.968 6.80602H74.9259C74.8535 4.80106 74.1606 3.24743 72.8471 2.14514C71.5336 1.04285 69.7138 0.491699 67.3877 0.491699C64.8909 0.491699 62.9843 1.00957 61.668 2.04533C60.3516 3.08108 59.6934 4.56816 59.6934 6.50658C59.6687 7.43848 59.8587 8.36357 60.2489 9.21024C60.6035 9.95711 61.1615 10.5889 61.8589 11.0329C62.6545 11.5421 63.9825 11.9992 65.8428 12.4043L66.2768 12.4954L66.3983 12.5258C69.8701 13.3185 71.606 14.321 71.606 15.5332C71.6251 15.8986 71.5516 16.2628 71.3923 16.5921C71.233 16.9214 70.993 17.205 70.6946 17.4167C70.087 17.8507 69.1887 18.0503 67.9996 18.0503C66.5979 18.0503 65.526 17.7899 64.7882 17.2605C64.4059 16.9716 64.0886 16.6055 63.8568 16.1861C63.6251 15.7667 63.4841 15.3033 63.4429 14.8259H59.3939C59.5039 16.9784 60.272 18.6362 61.6983 19.7992C63.1246 20.9623 65.0935 21.5409 67.6047 21.5351C70.1536 21.5351 72.1267 20.9565 73.5241 19.7992C74.9215 18.6419 75.6217 17.0319 75.6245 14.9691C75.6513 14.0396 75.4423 13.1184 75.017 12.2915C74.5878 11.5435 73.954 10.9337 73.19 10.5339V10.5339Z" fill="#eeeeee"></path>
<path d="M77.5906 1.03418V4.59711H83.51V20.9926H87.6197V4.59711H93.5001V1.03418H77.5906Z" fill="#eeeeee"></path>
</g>

</svg>
