<svg width="100%" height="100%" viewBox="0 0 25 25" fill="none" xmlns="http://www.w3.org/2000/svg">
<path d="M8.2973 19.9038C6.40716 19.9038 4.61557 19.5097 3.00371 18.8066C4.99881 18.6662 6.82652 17.9535 8.31433 16.8374C8.46274 16.7261 8.52405 16.5328 8.46692 16.3563C8.40978 16.1798 8.24683 16.059 8.06134 16.0558C6.47058 16.0279 5.10119 15.1591 4.40825 13.9088C4.46717 13.9109 4.52647 13.9119 4.58619 13.9119C5.0466 13.9119 5.49577 13.852 5.91936 13.7427C6.11608 13.6919 6.25131 13.5115 6.2449 13.3085C6.23849 13.1054 6.09216 12.9339 5.89263 12.8956C4.16848 12.565 2.84028 11.2366 2.56591 9.58884C3.06998 9.76905 3.61107 9.87526 4.17407 9.89203C4.36936 9.89785 4.54449 9.77254 4.60203 9.58583C4.65957 9.39912 4.58536 9.19698 4.42067 9.09185C3.28763 8.36862 2.55092 7.13802 2.55092 5.7524C2.55092 5.23123 2.65517 4.73347 2.84468 4.27632C5.20286 6.79039 8.55859 8.42333 12.3125 8.60257C12.4497 8.60912 12.582 8.55032 12.6691 8.44402C12.7562 8.33772 12.7878 8.19648 12.7544 8.06317C12.6824 7.77571 12.6457 7.47119 12.6457 7.15493C12.6457 4.9539 14.5172 3.13547 16.863 3.13547C18.0843 3.13547 19.1809 3.62831 19.9496 4.4112C20.0512 4.51473 20.1978 4.56066 20.3404 4.53363C20.9964 4.4092 21.6292 4.22278 22.2321 3.97991C21.8948 4.436 21.4591 4.82347 20.9535 5.11324C20.7748 5.21567 20.6926 5.42958 20.7568 5.62533C20.821 5.82108 21.0138 5.94481 21.2185 5.92155C21.6628 5.87106 22.0977 5.79217 22.5218 5.68677C22.1402 6.07113 21.7214 6.42185 21.2711 6.73278C21.147 6.8185 21.0762 6.96252 21.0842 7.11318C21.0938 7.29424 21.0972 7.47722 21.0972 7.66671C21.0972 13.3468 16.5798 19.9038 8.2973 19.9038Z" stroke="#eeeeee" stroke-width="0.868589" stroke-linejoin="round"></path>
</svg>
